<?xml version="1.0" standalone="no"?>
<!DOCTYPE svg PUBLIC "-//W3C//DTD SVG 20010904//EN"
 "http://www.w3.org/TR/2001/REC-SVG-20010904/DTD/svg10.dtd">
<svg version="1.0" xmlns="http://www.w3.org/2000/svg"
 width="1230.000000pt" height="1230.000000pt" viewBox="0 0 1230.000000 1230.000000"
 preserveAspectRatio="xMidYMid meet">
<metadata>
Created by potrace 1.14, written by Peter Selinger 2001-2017
</metadata>
<g transform="translate(0.000000,1230.000000) scale(0.100000,-0.100000)"
fill="#000000" stroke="none">
<path d="M3630 12073 c-13 -9 -20 -11 -16 -5 4 7 1 12 -9 12 -10 0 -13 -5 -9
-12 4 -7 3 -8 -4 -4 -22 13 -52 15 -52 3 0 -8 -3 -8 -8 -2 -4 6 -16 11 -27 11
-11 0 -23 -5 -27 -11 -5 -7 -8 -6 -8 1 0 14 -68 13 -89 -1 -10 -6 -12 -4 -7 4
11 18 -26 10 -42 -9 -11 -13 -11 -13 -7 1 5 12 0 16 -17 15 -13 -1 -29 -6 -37
-10 -9 -6 -12 -5 -8 0 3 6 -20 10 -59 9 -35 0 -64 -4 -64 -10 0 -5 -4 -4 -8 3
-9 13 -38 12 -61 -2 -10 -6 -12 -5 -7 2 4 7 1 12 -9 12 -9 0 -14 -4 -11 -8 2
-4 -5 -9 -17 -9 -17 -2 -19 0 -7 7 11 7 8 9 -14 8 -15 -2 -31 -9 -34 -16 -4
-11 -6 -11 -13 -1 -10 16 -39 21 -39 6 0 -8 -3 -8 -8 -2 -11 15 -46 19 -36 4
5 -8 3 -10 -6 -4 -21 13 -81 15 -73 2 4 -6 1 -7 -8 -2 -20 13 -72 14 -88 1
-12 -9 -13 -8 -6 3 6 11 4 13 -9 8 -10 -4 -20 -7 -22 -7 -3 0 -2 -6 2 -12 6
-10 4 -10 -7 0 -7 6 -17 12 -22 12 -4 0 -5 -6 -1 -12 6 -10 4 -10 -7 0 -7 6
-17 12 -22 12 -4 0 -5 -6 -1 -12 6 -10 4 -10 -8 0 -13 10 -17 10 -21 0 -4 -10
-6 -10 -6 0 -1 6 -6 12 -12 12 -5 0 -7 -6 -3 -12 6 -10 4 -10 -7 0 -7 6 -17
12 -22 12 -4 0 -5 -6 -1 -12 6 -9 3 -9 -9 0 -18 15 -41 7 -31 -10 5 -7 2 -8
-7 -2 -20 12 -79 12 -79 -1 0 -5 -4 -4 -9 4 -8 12 -12 12 -26 -3 -13 -12 -21
-14 -28 -7 -13 13 -41 15 -33 3 2 -4 -5 -9 -17 -9 -17 -2 -19 0 -7 7 11 8 9 9
-10 6 -14 -3 -29 -5 -33 -5 -5 -1 -5 -7 -1 -13 6 -10 4 -10 -7 -3 -8 6 -21 10
-29 9 -8 -1 -25 -2 -38 -3 -16 -1 -21 -5 -16 -13 6 -9 3 -9 -9 0 -14 12 -21
11 -47 -1 -17 -9 -28 -11 -25 -6 11 16 -7 10 -22 -8 -8 -10 -11 -12 -7 -4 5
11 2 13 -17 8 -13 -4 -36 -7 -51 -7 -20 0 -28 -5 -29 -17 0 -11 -3 -13 -6 -5
-2 6 -9 12 -14 12 -6 0 -7 -6 -3 -12 5 -9 2 -9 -9 1 -12 9 -17 10 -17 2 0 -7
-6 -11 -12 -10 -28 3 -49 -1 -44 -10 4 -5 -3 -7 -14 -4 -12 3 -28 -1 -38 -9
-9 -8 -28 -15 -41 -16 -13 0 -27 -6 -31 -13 -4 -6 -13 -8 -19 -5 -6 4 -11 0
-11 -11 0 -15 -2 -16 -10 -3 -9 13 -12 13 -20 -2 -6 -10 -18 -14 -30 -11 -12
3 -20 2 -19 -3 4 -21 -2 -28 -11 -14 -8 12 -12 13 -19 2 -4 -8 -11 -13 -15
-13 -6 1 -11 0 -31 -3 -20 -4 -65 -29 -65 -37 0 -5 -8 -5 -17 -2 -13 5 -15 2
-10 -12 6 -14 5 -16 -7 -6 -11 9 -15 8 -20 -4 -3 -9 -10 -13 -16 -10 -5 3 -10
1 -10 -4 0 -6 -5 -11 -11 -11 -6 0 -20 -11 -30 -25 -11 -13 -26 -22 -33 -19
-7 3 -19 -2 -26 -11 -11 -13 -10 -15 6 -9 15 4 16 4 5 -4 -8 -6 -20 -8 -28 -5
-7 3 -13 -2 -13 -12 0 -10 -5 -13 -12 -9 -7 5 -9 2 -5 -9 4 -11 2 -14 -9 -10
-9 3 -14 -1 -14 -12 0 -9 -4 -13 -10 -10 -5 3 -10 1 -10 -4 0 -6 -6 -10 -13
-9 -6 2 -11 -3 -9 -9 1 -7 -3 -13 -10 -13 -19 0 -125 -121 -153 -174 -27 -50
-41 -71 -52 -79 -7 -4 -9 -15 -6 -24 4 -11 3 -14 -5 -9 -11 7 -13 3 -16 -31
-1 -6 -8 -19 -17 -30 -20 -23 -33 -54 -30 -72 1 -7 -2 -10 -7 -7 -8 5 -14 -6
-26 -44 -1 -3 -5 -11 -10 -19 -5 -8 -4 -16 5 -22 11 -7 10 -9 -4 -9 -10 0 -15
-4 -12 -10 3 -5 0 -10 -7 -10 -11 0 -10 -2 0 -9 11 -7 11 -9 -2 -14 -9 -4 -16
-12 -16 -19 0 -9 3 -8 10 2 6 9 10 10 10 3 0 -6 -5 -15 -11 -18 -6 -4 -8 -14
-5 -22 3 -8 1 -11 -4 -8 -14 9 -12 -19 3 -34 10 -10 8 -11 -8 -5 -11 4 -17 4
-13 -1 4 -4 2 -15 -5 -23 -9 -13 -9 -14 1 -8 6 4 12 3 12 -3 0 -5 -4 -11 -10
-13 -5 -1 -11 -12 -13 -23 -1 -11 -7 -26 -11 -34 -7 -11 -5 -13 10 -8 17 7 18
6 2 -6 -11 -9 -15 -22 -12 -38 5 -19 3 -21 -5 -9 -6 9 -11 10 -11 3 0 -6 -3
-19 -7 -29 -5 -13 -3 -15 8 -9 12 8 12 6 0 -8 -7 -9 -10 -17 -6 -17 4 0 3 -6
-3 -12 -5 -7 -9 -28 -7 -46 1 -18 -1 -35 -6 -38 -5 -3 -9 -11 -9 -17 0 -7 4
-6 10 3 6 9 10 10 10 3 0 -6 -5 -15 -10 -18 -8 -5 -7 -12 2 -23 11 -13 11 -14
-1 -7 -11 6 -13 3 -9 -13 4 -13 2 -20 -3 -16 -6 3 -8 -5 -5 -19 2 -14 2 -28
-2 -31 -11 -12 -12 -47 -1 -40 8 5 8 1 0 -14 -6 -11 -8 -28 -4 -38 4 -11 2
-15 -4 -11 -6 4 -10 -4 -10 -18 0 -22 2 -24 16 -13 14 12 15 11 1 -5 -8 -11
-15 -28 -17 -39 -3 -18 -1 -19 14 -7 17 13 17 13 3 -5 -8 -11 -15 -26 -15 -35
0 -9 -4 -22 -9 -29 -4 -7 -3 -19 3 -26 6 -7 7 -16 3 -20 -11 -12 -11 -107 0
-100 6 4 5 -3 -1 -15 -7 -12 -9 -26 -6 -31 3 -6 3 -10 -2 -10 -4 0 -9 -26 -10
-57 -1 -37 1 -52 7 -43 7 11 9 10 7 -7 0 -12 -5 -19 -9 -17 -4 3 -8 -2 -8 -11
0 -10 5 -13 12 -9 7 5 8 3 3 -6 -5 -8 -10 -39 -11 -69 -2 -38 0 -51 6 -41 6 9
10 10 10 3 0 -6 -4 -15 -10 -18 -5 -3 -10 -11 -10 -17 0 -7 5 -6 15 2 13 10
13 8 0 -18 -16 -31 -16 -57 -1 -81 6 -10 5 -12 -2 -7 -7 4 -12 1 -12 -9 0 -10
5 -13 12 -9 7 5 8 3 3 -6 -4 -7 -9 -38 -11 -69 -3 -51 -2 -54 11 -37 19 25 19
17 0 -21 -16 -32 -16 -58 -1 -82 6 -10 5 -12 -2 -7 -7 4 -12 1 -12 -9 0 -10 5
-13 12 -9 7 5 8 3 3 -6 -4 -7 -9 -38 -11 -69 -3 -51 -2 -54 11 -37 19 25 19
17 0 -21 -16 -32 -16 -58 -1 -82 6 -10 5 -12 -2 -7 -7 4 -12 1 -12 -9 0 -9 5
-13 11 -9 8 4 8 1 1 -12 -11 -23 -10 -103 2 -123 6 -10 5 -12 -2 -7 -7 4 -12
1 -12 -9 0 -10 5 -13 12 -9 7 5 8 3 3 -6 -4 -7 -9 -38 -11 -69 -3 -51 -2 -54
11 -37 19 25 19 17 0 -21 -16 -32 -16 -58 -1 -82 6 -10 5 -12 -2 -7 -7 4 -12
1 -12 -9 0 -10 5 -13 12 -9 7 5 8 3 3 -6 -4 -7 -9 -38 -11 -69 -3 -51 -2 -54
11 -37 19 25 19 17 0 -21 -16 -32 -16 -58 -1 -82 6 -10 5 -12 -2 -7 -7 4 -12
1 -12 -9 0 -9 4 -14 8 -11 4 2 8 -4 8 -14 0 -10 -4 -16 -8 -14 -4 3 -8 -2 -8
-11 0 -10 5 -13 12 -9 7 5 8 3 3 -6 -5 -8 -10 -39 -11 -69 -2 -37 0 -51 6 -41
7 12 9 10 7 -7 0 -12 -5 -19 -9 -17 -4 3 -8 -2 -8 -11 0 -10 5 -13 12 -9 7 5
8 3 3 -6 -5 -8 -10 -39 -11 -69 -2 -37 0 -51 6 -41 7 12 9 10 7 -7 0 -12 -5
-19 -9 -17 -4 3 -8 -2 -8 -11 0 -10 5 -13 12 -9 7 5 8 3 3 -6 -5 -8 -10 -39
-11 -69 -2 -37 0 -51 6 -41 7 12 9 10 7 -7 0 -12 -5 -19 -9 -17 -4 3 -8 -2 -8
-11 0 -10 5 -13 12 -9 7 5 8 3 3 -6 -5 -8 -10 -39 -11 -69 -2 -38 0 -51 6 -41
5 8 10 10 10 4 0 -6 -3 -14 -7 -18 -12 -11 -11 -56 1 -56 7 0 7 -3 1 -8 -16
-11 -19 -46 -3 -36 10 6 10 5 2 -7 -13 -16 -12 -68 1 -88 5 -10 4 -12 -3 -7
-7 4 -12 1 -12 -9 0 -10 5 -13 12 -9 7 5 8 3 3 -6 -4 -7 -9 -38 -11 -69 -3
-51 -2 -54 11 -37 19 25 19 17 0 -21 -16 -32 -16 -58 -1 -82 6 -10 5 -12 -2
-7 -7 4 -12 1 -12 -9 0 -10 5 -13 12 -9 7 5 8 3 3 -6 -4 -7 -9 -38 -11 -69 -3
-51 -2 -54 11 -37 19 25 19 17 0 -21 -16 -32 -16 -58 -1 -82 6 -10 5 -12 -2
-7 -7 4 -12 1 -12 -9 0 -10 5 -13 12 -9 7 5 8 3 3 -6 -4 -7 -9 -38 -11 -69 -3
-51 -2 -54 11 -37 19 25 19 17 0 -21 -16 -32 -16 -58 -1 -82 6 -10 5 -12 -2
-7 -7 4 -12 1 -12 -9 0 -10 5 -13 12 -9 7 5 8 3 3 -6 -4 -7 -9 -38 -11 -69 -3
-51 -2 -54 11 -37 19 25 19 17 0 -21 -16 -32 -16 -58 -1 -82 6 -10 5 -12 -2
-7 -7 4 -12 1 -12 -9 0 -10 5 -13 12 -9 7 5 8 3 3 -6 -13 -22 -17 -132 -3
-124 7 5 8 3 3 -6 -5 -8 -10 -39 -11 -69 -2 -37 0 -51 6 -41 7 12 9 10 7 -7 0
-12 -5 -19 -9 -17 -4 3 -8 -2 -8 -11 0 -10 5 -13 12 -9 7 5 8 3 3 -6 -5 -8
-10 -39 -11 -69 -2 -37 0 -51 6 -41 7 12 9 10 7 -7 0 -12 -5 -19 -9 -17 -4 3
-8 -2 -8 -11 0 -10 5 -13 12 -9 7 5 8 3 3 -6 -5 -8 -10 -39 -11 -69 -2 -37 0
-51 6 -41 7 12 9 10 7 -7 0 -12 -5 -19 -9 -17 -4 3 -8 -2 -8 -11 0 -10 5 -13
12 -9 7 5 8 3 3 -6 -5 -8 -10 -39 -11 -69 -2 -38 0 -51 6 -41 6 9 10 10 10 3
0 -6 -5 -15 -10 -18 -6 -3 -10 -11 -10 -17 0 -7 5 -6 15 2 13 10 13 8 0 -18
-16 -31 -16 -57 -1 -81 6 -10 5 -12 -2 -7 -7 4 -12 1 -12 -9 0 -10 5 -13 12
-9 7 5 8 3 3 -6 -4 -7 -9 -38 -11 -69 -3 -51 -2 -54 11 -37 19 25 19 17 0 -21
-16 -32 -16 -58 -1 -82 6 -10 5 -12 -2 -7 -7 4 -12 1 -12 -9 0 -10 5 -13 12
-9 7 5 8 3 3 -6 -4 -7 -9 -38 -11 -69 -3 -51 -2 -54 11 -37 19 25 19 17 0 -21
-16 -32 -16 -58 -1 -82 6 -10 5 -12 -2 -7 -7 4 -12 1 -12 -9 0 -9 5 -13 11 -9
8 4 8 1 1 -12 -11 -23 -10 -103 2 -123 6 -10 5 -12 -2 -7 -7 4 -12 1 -12 -9 0
-10 5 -13 12 -9 7 5 8 3 3 -6 -4 -7 -9 -38 -11 -69 -3 -51 -2 -54 11 -37 19
25 19 17 0 -21 -16 -32 -16 -58 -1 -82 6 -10 5 -12 -2 -7 -7 4 -12 1 -12 -9 0
-10 5 -13 12 -9 7 5 8 3 3 -6 -4 -7 -9 -38 -11 -69 -3 -51 -2 -54 11 -37 19
25 19 17 0 -21 -16 -32 -16 -58 -1 -82 6 -10 5 -12 -2 -7 -7 4 -12 1 -12 -9 0
-9 4 -14 8 -11 4 2 8 -4 8 -14 0 -10 -4 -16 -8 -14 -4 3 -8 -2 -8 -11 0 -10 5
-13 12 -9 7 5 8 3 3 -6 -5 -8 -10 -39 -11 -69 -2 -37 0 -51 6 -41 7 12 9 10 7
-7 0 -12 -5 -19 -9 -17 -4 3 -8 -2 -8 -11 0 -10 5 -13 12 -9 7 5 8 3 3 -6 -5
-8 -10 -39 -11 -69 -2 -37 0 -51 6 -41 7 12 9 10 7 -7 0 -12 -5 -19 -9 -17 -4
3 -8 -2 -8 -11 0 -10 5 -13 12 -9 7 5 8 3 3 -6 -5 -8 -10 -39 -11 -69 -2 -37
0 -51 6 -41 7 12 9 10 7 -7 0 -12 -5 -19 -9 -17 -4 3 -8 -2 -8 -11 0 -10 5
-13 12 -9 7 5 8 3 3 -6 -5 -8 -10 -39 -11 -69 -2 -38 0 -51 6 -41 5 8 10 10
10 4 0 -6 -3 -14 -7 -18 -12 -11 -11 -56 1 -56 7 0 7 -3 1 -8 -16 -11 -19 -46
-3 -36 10 6 10 5 2 -7 -13 -16 -12 -68 1 -88 5 -10 4 -12 -3 -7 -7 4 -12 1
-12 -9 0 -10 5 -13 12 -9 7 5 8 3 3 -6 -4 -7 -9 -38 -11 -69 -3 -51 -2 -54 11
-37 19 25 19 17 0 -21 -16 -32 -16 -58 -1 -82 6 -10 5 -12 -2 -7 -7 4 -12 1
-12 -9 0 -10 5 -13 12 -9 7 5 8 3 3 -6 -4 -7 -9 -38 -11 -69 -3 -51 -2 -54 11
-37 19 25 19 17 0 -21 -16 -32 -16 -58 -1 -82 6 -10 5 -12 -2 -7 -7 4 -12 1
-12 -9 0 -10 5 -13 12 -9 7 5 8 3 3 -6 -4 -7 -9 -38 -11 -69 -3 -51 -2 -54 11
-37 19 25 19 17 0 -21 -16 -32 -16 -58 -1 -82 6 -10 5 -12 -2 -7 -7 4 -12 1
-12 -9 0 -10 5 -13 12 -9 7 5 8 3 3 -6 -4 -7 -9 -38 -11 -69 -3 -51 -2 -54 11
-37 19 25 19 17 0 -21 -16 -32 -16 -58 -1 -82 6 -10 5 -12 -2 -7 -7 4 -12 1
-12 -9 0 -10 5 -13 12 -9 7 5 8 3 3 -6 -13 -22 -17 -132 -3 -124 7 5 8 3 3 -6
-5 -8 -10 -39 -11 -69 -2 -37 0 -51 6 -41 7 12 9 10 7 -7 0 -12 -5 -19 -9 -17
-4 3 -8 -2 -8 -11 0 -10 5 -13 12 -9 7 5 8 3 3 -6 -5 -8 -10 -39 -11 -69 -2
-37 0 -51 6 -41 7 12 9 10 7 -7 0 -12 -5 -19 -9 -17 -4 3 -8 -2 -8 -11 0 -10
5 -13 12 -9 7 5 8 3 2 -7 -11 -18 -13 -119 -2 -119 4 0 8 -5 8 -11 0 -5 -4 -8
-9 -5 -5 4 -7 -3 -4 -14 3 -11 10 -17 16 -13 6 4 7 1 1 -8 -13 -21 -14 -110 0
-102 6 4 5 -1 -3 -10 -8 -10 -9 -17 -3 -17 6 0 9 -11 6 -25 -3 -20 -1 -23 13
-18 15 5 15 3 -2 -10 -17 -14 -18 -18 -5 -27 11 -7 11 -10 2 -10 -10 0 -10 -5
-1 -21 8 -15 8 -19 0 -15 -6 4 -11 2 -11 -3 0 -6 5 -11 11 -11 6 0 9 -6 6 -14
-3 -7 -1 -18 5 -24 6 -6 6 -12 -2 -17 -8 -5 -7 -11 2 -23 10 -12 10 -14 1 -8
-7 4 -13 3 -13 -3 0 -5 6 -12 13 -14 10 -4 10 -6 0 -6 -14 -1 -18 -31 -4 -31
4 0 8 -10 8 -22 1 -43 3 -49 15 -42 11 6 11 4 1 -7 -17 -17 -17 -32 -1 -23 9
5 9 2 -1 -9 -7 -9 -10 -17 -5 -17 5 0 10 -17 12 -38 3 -33 5 -55 10 -100 1 -7
7 -10 13 -7 6 4 5 -3 -3 -15 -11 -18 -11 -23 6 -36 11 -8 14 -14 8 -14 -7 0
-12 -7 -12 -15 0 -8 5 -15 11 -15 5 0 7 -5 4 -10 -3 -6 -1 -10 4 -10 6 0 10
-8 9 -18 -3 -34 2 -53 12 -47 6 3 7 -1 4 -10 -4 -8 0 -23 7 -32 9 -11 10 -14
2 -10 -17 11 12 -70 35 -97 15 -19 15 -19 0 -8 -15 12 -16 11 -5 -17 6 -16 15
-27 20 -24 5 3 6 -3 3 -15 -5 -15 -1 -21 16 -25 18 -5 20 -9 11 -18 -10 -10
-8 -15 5 -26 9 -8 11 -12 5 -8 -9 4 -11 1 -7 -9 3 -9 9 -16 13 -16 3 0 12 -9
19 -21 8 -12 9 -18 4 -15 -16 9 24 -66 47 -91 12 -12 21 -27 21 -33 0 -6 4 -8
10 -5 6 3 10 -4 10 -17 0 -18 2 -20 10 -8 8 12 10 9 10 -11 0 -15 8 -33 18
-40 16 -13 16 -13 2 6 -14 19 -14 19 2 6 10 -7 15 -17 12 -22 -3 -5 9 -24 28
-41 18 -17 26 -28 18 -23 -13 8 -13 7 -1 -8 15 -19 36 -23 25 -5 -4 7 -3 8 5
4 6 -4 9 -11 6 -15 -2 -5 13 -25 35 -44 25 -24 40 -32 43 -24 3 7 6 4 6 -7 1
-12 6 -16 17 -12 8 3 13 2 10 -2 -7 -12 22 -45 33 -37 6 3 9 0 5 -8 -3 -10 4
-17 20 -21 14 -3 26 -11 26 -16 0 -6 5 -10 11 -10 5 0 7 6 4 13 -4 6 2 1 13
-12 11 -14 24 -21 31 -17 6 4 11 4 10 -1 -3 -20 2 -27 11 -13 8 13 10 13 10
-2 0 -9 9 -20 20 -23 11 -3 20 -12 20 -18 0 -7 4 -6 10 3 8 13 10 12 10 -3 0
-10 4 -16 9 -12 5 3 12 1 16 -5 3 -5 17 -10 31 -10 17 0 23 -4 18 -12 -4 -7
-4 -10 1 -6 4 4 15 2 23 -5 13 -10 14 -9 7 3 -8 13 -6 13 8 2 9 -8 22 -10 28
-6 7 4 9 3 6 -3 -8 -13 39 -27 55 -17 7 4 8 3 4 -4 -7 -11 -3 -14 27 -16 6 -1
15 -4 18 -8 3 -5 17 -9 32 -10 15 -1 27 -6 27 -11 0 -5 8 -3 17 4 11 10 14 10
9 2 -4 -7 -2 -14 3 -14 21 -3 26 -4 40 -13 10 -6 12 -5 7 2 -4 7 -3 12 3 12 5
0 11 -4 13 -9 1 -5 17 -11 35 -14 17 -3 37 -8 42 -12 6 -3 11 0 11 7 0 9 3 10
8 2 4 -6 21 -14 37 -18 73 -16 85 -16 85 -4 0 8 4 7 10 -3 6 -10 20 -15 35
-14 14 2 28 -1 31 -6 3 -6 12 -5 22 3 9 7 13 8 9 2 -8 -14 54 -15 72 0 11 8
13 8 8 0 -4 -7 0 -15 9 -18 24 -9 31 -7 14 5 -12 9 -11 10 5 4 39 -13 55 -14
55 -2 0 7 4 6 10 -3 5 -8 10 -11 10 -7 0 4 10 3 21 -4 17 -9 20 -8 13 3 -6 11
-5 11 9 -1 14 -11 17 -11 17 0 0 9 3 10 8 3 4 -6 21 -11 37 -11 17 0 43 -4 58
-7 20 -5 27 -3 22 5 -6 8 -2 8 13 0 14 -7 23 -8 27 -1 4 6 12 7 18 3 20 -13
49 -14 41 -2 -5 8 -1 8 13 0 14 -7 24 -7 33 2 10 9 11 9 6 0 -5 -8 -1 -13 9
-13 9 0 14 4 11 9 -8 12 24 7 32 -5 11 -14 64 -15 81 -1 12 9 13 9 7 0 -4 -8
-1 -13 8 -13 9 0 16 6 16 13 0 9 3 8 9 -2 7 -11 9 -11 14 0 5 12 6 12 6 0 1
-11 4 -11 18 0 11 10 14 10 9 2 -4 -8 -1 -13 9 -13 9 0 14 4 11 8 -3 5 1 9 9
9 8 0 12 -4 9 -9 -3 -4 2 -8 10 -8 9 0 16 6 16 13 0 9 2 9 9 -1 4 -8 12 -14
16 -14 4 0 12 6 16 14 6 8 9 9 9 1 0 -13 18 -12 39 1 9 6 12 5 8 -1 -9 -14 96
-12 105 2 5 7 8 6 8 -2 0 -13 18 -12 39 1 10 6 12 5 7 -2 -4 -7 -1 -12 8 -12
9 0 16 6 16 13 0 9 3 8 9 -2 7 -11 9 -11 14 0 5 12 6 12 6 0 1 -11 4 -11 18 0
11 10 14 10 9 2 -4 -8 -1 -13 9 -13 9 0 14 4 11 8 -3 5 1 9 9 9 8 0 12 -4 9
-9 -3 -4 2 -8 10 -8 9 0 16 6 16 13 0 9 2 9 9 -1 11 -17 21 -17 32 0 6 8 9 9
9 1 0 -13 18 -12 39 1 10 6 12 5 7 -2 -4 -7 -1 -12 8 -12 9 0 16 6 16 13 0 9
3 8 9 -2 7 -11 9 -11 14 0 5 12 6 12 6 0 1 -11 4 -11 18 0 11 10 14 10 9 2 -4
-8 -1 -13 9 -13 9 0 14 4 11 8 -3 5 1 9 9 9 8 0 12 -4 9 -9 -3 -4 2 -8 10 -8
9 0 16 6 16 13 0 9 2 9 9 -1 4 -8 12 -14 16 -14 4 0 12 6 16 14 6 8 9 9 9 1 0
-13 18 -12 39 1 10 6 12 5 7 -2 -4 -7 -1 -12 8 -12 9 0 16 6 16 13 0 9 3 8 9
-2 7 -11 9 -11 14 0 4 11 6 11 6 1 1 -8 6 -10 14 -5 16 10 38 13 33 4 -3 -4
35 -7 84 -7 54 0 86 4 83 9 -4 6 -1 7 8 1 20 -13 121 -13 138 0 10 7 13 7 9 0
-5 -7 22 -10 82 -10 54 0 86 4 83 9 -4 6 -1 7 8 1 17 -11 151 -15 144 -5 -2 4
2 8 10 8 8 0 12 -4 9 -9 -3 -4 2 -8 10 -8 9 0 16 6 16 13 0 9 2 9 9 -1 4 -8
12 -14 16 -14 4 0 12 6 16 14 6 8 9 9 9 1 0 -13 18 -12 39 1 10 6 12 5 7 -2
-4 -7 -1 -12 8 -12 9 0 16 6 16 13 0 9 3 8 9 -2 7 -11 9 -11 14 0 5 12 6 12 6
0 1 -11 4 -11 18 0 11 10 14 10 9 1 -4 -7 -1 -12 9 -12 9 0 14 4 11 8 -3 5 1
9 9 9 8 0 12 -4 9 -9 -3 -4 2 -8 10 -8 9 0 16 6 16 13 0 9 2 9 9 -1 4 -8 12
-14 16 -14 4 0 12 6 16 14 6 8 9 9 9 1 0 -13 18 -12 39 1 10 6 12 5 7 -2 -4
-7 -1 -12 8 -12 9 0 16 6 16 13 0 9 3 8 9 -2 7 -11 9 -11 14 0 5 12 6 12 6 0
1 -11 4 -11 18 0 11 10 14 10 9 2 -4 -8 -1 -13 9 -13 9 0 14 4 11 8 -3 5 1 9
9 9 8 0 12 -4 9 -9 -3 -4 2 -8 10 -8 9 0 16 6 16 13 0 9 2 9 9 -1 4 -8 12 -14
16 -14 4 0 12 6 16 14 6 8 9 9 9 1 0 -13 18 -12 39 1 10 6 12 5 7 -2 -4 -7 -1
-12 8 -12 9 0 16 6 16 13 0 9 3 8 9 -2 7 -11 9 -11 14 0 5 12 6 12 6 0 1 -11
4 -11 18 0 11 10 14 10 9 2 -4 -8 -1 -13 9 -13 9 0 14 4 11 8 -3 5 1 9 9 9 8
0 12 -4 9 -9 -3 -4 2 -8 10 -8 9 0 16 6 16 13 0 9 2 9 9 -1 4 -8 12 -14 16
-14 4 0 12 6 16 14 6 8 9 9 9 1 0 -13 18 -12 39 1 10 6 12 5 7 -2 -4 -7 -1
-12 8 -12 9 0 16 6 16 13 0 9 3 8 9 -2 7 -11 9 -11 14 0 5 12 6 12 6 0 1 -11
4 -11 18 0 11 10 14 10 9 2 -4 -8 -1 -13 9 -13 9 0 14 4 11 8 -3 5 1 9 9 9 8
0 12 -4 9 -9 -3 -4 2 -8 10 -8 9 0 16 6 16 13 0 9 2 9 9 -1 11 -17 21 -17 32
0 6 8 9 9 9 1 0 -13 18 -12 39 1 10 6 12 5 7 -2 -4 -7 -1 -12 8 -12 9 0 16 6
16 13 0 9 3 8 9 -2 7 -11 9 -11 14 0 5 12 6 12 6 0 1 -11 4 -11 18 0 11 10 14
10 9 2 -4 -8 -1 -13 9 -13 10 0 14 5 9 13 -6 10 -4 10 7 0 15 -15 33 -18 25
-5 -3 5 1 9 9 9 8 0 12 -4 9 -9 -8 -13 10 -10 25 4 8 7 11 8 8 2 -4 -7 24 -10
83 -10 60 0 87 3 82 10 -4 7 -1 7 9 0 17 -13 118 -13 138 0 9 6 12 5 8 -1 -3
-5 29 -9 83 -9 54 0 86 4 83 9 -4 6 -1 7 8 1 20 -13 149 -13 149 0 0 8 3 8 8
1 8 -13 22 -13 41 -1 10 6 12 5 7 -2 -4 -7 -1 -12 8 -12 9 0 16 6 16 13 0 8 4
7 10 -3 9 -13 10 -13 10 0 0 12 2 12 9 1 6 -9 11 -10 15 -2 4 6 13 11 19 11 7
0 6 -4 -3 -10 -12 -8 -13 -10 -1 -10 8 0 24 8 35 17 20 17 20 17 7 0 -12 -15
-11 -17 5 -14 33 7 54 19 48 28 -3 5 0 9 5 9 6 0 11 5 11 11 0 5 -4 8 -8 5 -5
-3 -9 1 -9 9 0 8 4 12 9 9 10 -7 6 35 -5 53 -4 6 -3 14 3 18 5 3 10 14 10 23
0 15 -2 15 -10 2 -6 -9 -10 -10 -10 -3 0 6 5 15 10 18 6 4 7 12 3 18 -11 18
-13 38 -3 32 5 -3 8 10 7 30 -1 19 -6 35 -12 35 -5 0 -4 4 4 9 9 6 10 11 2 15
-6 4 -8 13 -4 19 11 19 11 77 -1 77 -7 0 -7 3 -1 8 12 8 13 32 2 49 -4 6 -2
15 3 18 8 5 5 14 -7 28 -16 20 -16 20 0 8 16 -12 17 -11 13 10 -3 13 -5 24 -6
24 -1 0 -3 8 -5 18 -2 9 1 15 6 11 12 -7 7 59 -6 68 -6 5 -6 8 1 8 12 0 12 28
1 47 -4 6 -2 15 3 18 8 5 5 14 -7 28 -16 20 -16 20 0 8 16 -12 17 -11 13 10
-3 13 -5 24 -6 24 -1 0 -3 8 -5 18 -2 9 1 15 6 11 12 -7 7 59 -6 68 -6 5 -5 8
4 8 10 0 11 3 2 14 -8 10 -9 16 -1 21 5 3 10 14 10 23 0 15 -2 15 -10 2 -6 -9
-10 -10 -10 -3 0 6 5 15 10 18 6 4 7 12 3 18 -11 18 -12 38 -2 31 11 -6 8 34
-4 53 -4 6 -3 14 3 18 5 3 10 14 10 23 0 15 -2 15 -10 2 -6 -9 -10 -10 -10 -3
0 6 5 15 10 18 6 4 7 12 3 18 -11 18 -13 38 -3 32 5 -3 8 10 7 30 -1 19 -6 35
-12 35 -5 0 -4 4 4 9 9 6 10 11 2 15 -6 4 -8 13 -4 19 11 19 11 77 -1 77 -7 0
-7 3 -1 8 12 8 13 32 2 49 -4 6 -2 15 3 18 8 5 5 14 -7 28 -16 20 -16 20 0 8
16 -12 17 -11 13 10 -3 13 -5 24 -6 24 -1 0 -3 8 -5 18 -2 9 1 15 6 11 12 -7
7 59 -6 68 -6 5 -6 8 1 8 12 0 12 28 1 47 -4 6 -2 15 3 18 8 5 5 14 -7 28 -16
20 -16 20 0 8 16 -12 17 -11 13 10 -3 13 -5 24 -6 24 -1 0 -3 8 -5 18 -2 9 1
15 5 12 5 -3 8 10 7 30 -1 19 -6 35 -12 35 -7 0 -7 3 0 8 14 10 18 55 4 46 -8
-5 -8 -1 0 14 14 27 14 35 -1 26 -9 -5 -9 -2 1 9 11 14 11 17 0 17 -12 0 -12
2 0 9 9 6 10 11 2 15 -6 4 -8 13 -4 19 11 19 11 77 -1 77 -7 0 -7 3 -1 8 12 8
13 32 2 49 -4 6 -3 15 3 18 8 5 8 11 1 19 -6 7 -8 16 -4 20 12 12 11 86 -1 86
-6 0 -5 4 3 9 9 6 10 11 2 15 -6 4 -8 13 -4 19 11 19 11 77 -1 77 -7 0 -7 3
-1 8 12 8 13 32 2 49 -4 6 -3 15 3 18 8 5 8 11 0 20 -8 9 -8 15 0 20 5 3 10
11 10 16 0 6 -5 7 -11 3 -8 -5 -8 -1 0 14 14 27 14 35 -1 26 -9 -5 -9 -2 1 9
11 14 11 17 0 17 -12 0 -12 2 0 9 9 6 10 11 2 15 -6 4 -8 13 -4 19 11 19 11
77 -1 77 -7 0 -7 3 -1 8 12 8 13 32 2 49 -4 6 -3 15 3 18 8 5 8 11 1 19 -6 7
-8 16 -4 20 12 12 11 86 -1 86 -6 0 -5 4 3 9 9 6 10 11 2 15 -6 4 -8 13 -4 19
11 19 11 77 -1 77 -7 0 -7 3 -1 8 12 8 13 32 2 49 -4 6 -3 15 3 18 8 5 7 12
-2 23 -10 12 -10 14 0 8 6 -4 12 -2 12 3 0 6 -6 11 -12 11 -10 0 -9 3 1 9 9 6
10 11 2 15 -6 4 -8 13 -4 19 11 19 11 77 -1 77 -7 0 -7 3 -1 8 12 8 13 32 2
49 -4 6 -2 15 3 18 8 5 5 14 -7 28 -16 20 -16 20 0 8 16 -12 17 -11 13 10 -3
13 -5 24 -6 24 -1 0 -3 8 -5 18 -2 9 1 15 6 11 12 -7 7 59 -6 68 -6 5 -6 8 1
8 12 0 12 28 1 47 -4 6 -2 15 3 18 8 5 5 14 -7 28 -16 20 -16 20 0 8 16 -12
17 -11 13 10 -3 13 -5 24 -6 24 -1 0 -3 8 -5 18 -2 9 1 15 6 11 12 -7 7 59 -6
68 -7 5 -6 8 0 8 6 0 11 9 12 20 1 13 -2 18 -10 13 -7 -4 -6 0 2 10 11 14 11
17 0 17 -11 0 -11 2 1 10 13 9 13 11 0 20 -10 6 -11 10 -2 10 6 0 12 12 12 26
0 18 4 25 14 21 7 -3 19 0 26 6 10 9 11 9 6 0 -11 -20 12 -15 24 5 9 13 10 13
7 1 -4 -12 2 -16 26 -17 23 -1 27 2 17 8 -9 6 -10 10 -3 10 6 0 15 -5 18 -10
5 -8 12 -7 23 2 12 10 14 10 8 1 -11 -20 12 -15 24 5 11 16 11 16 6 0 -3 -12
0 -18 10 -18 8 0 12 5 8 11 -5 8 -1 8 14 0 26 -14 35 -14 26 0 -5 8 -1 8 14 0
26 -14 35 -14 26 0 -5 8 -1 8 14 0 26 -14 35 -14 26 0 -5 8 -1 8 14 0 26 -14
35 -14 26 0 -5 8 -1 8 14 0 26 -14 35 -14 26 0 -5 8 -1 8 14 0 26 -14 35 -14
26 0 -5 8 -1 8 14 0 26 -14 35 -14 26 0 -6 10 4 7 37 -13 3 -1 14 4 24 12 11
9 16 10 11 3 -11 -20 12 -15 24 5 9 13 10 13 7 1 -4 -12 2 -16 26 -17 23 -1
27 2 17 8 -9 6 -10 10 -3 10 6 0 15 -5 18 -10 5 -8 12 -7 23 2 12 10 14 10 8
1 -11 -20 12 -15 24 5 9 13 10 13 7 1 -4 -12 2 -16 26 -17 23 -1 27 2 17 8 -9
6 -10 10 -3 10 6 0 15 -5 18 -10 5 -8 12 -7 23 2 12 10 14 10 8 1 -11 -20 12
-15 24 5 11 16 11 16 6 -1 -3 -11 0 -17 10 -17 8 0 12 5 8 11 -5 8 -1 8 14 0
26 -14 35 -14 26 0 -5 8 -1 8 14 0 26 -14 35 -14 26 0 -5 8 -1 8 14 0 26 -14
35 -14 26 0 -6 10 4 7 37 -13 3 -1 14 4 24 12 11 9 16 10 11 3 -11 -20 12 -15
24 5 9 13 10 13 7 1 -4 -12 2 -16 26 -17 23 -1 27 2 17 8 -9 6 -10 10 -3 10 6
0 15 -5 18 -10 5 -8 12 -7 23 2 12 10 14 10 8 1 -11 -20 12 -15 24 5 9 13 10
13 7 1 -4 -12 2 -16 26 -17 23 -1 27 2 17 8 -9 6 -10 10 -3 10 6 0 15 -5 18
-10 5 -8 12 -7 23 2 12 10 14 10 8 1 -11 -20 12 -15 24 4 11 17 11 17 6 1 -3
-12 0 -18 10 -18 8 0 12 5 8 11 -5 8 -1 8 14 0 26 -14 35 -14 26 0 -5 8 -1 8
14 0 26 -14 35 -14 26 0 -5 8 -1 8 14 0 26 -14 35 -14 26 0 -6 10 4 7 37 -13
3 -1 14 4 24 12 11 9 16 10 11 3 -11 -20 12 -15 24 5 9 13 10 13 7 1 -4 -12 2
-16 26 -17 23 -1 27 2 17 8 -9 6 -10 10 -3 10 6 0 15 -5 18 -10 5 -8 12 -7 23
2 12 10 14 10 8 1 -11 -20 12 -15 24 4 9 14 10 14 7 2 -4 -12 2 -16 26 -17 23
-1 27 2 17 8 -9 6 -10 10 -3 10 6 0 15 -5 18 -10 5 -8 12 -7 23 2 12 10 14 10
8 1 -11 -20 12 -15 24 4 11 17 11 17 6 1 -3 -12 0 -18 10 -18 8 0 12 5 8 11
-5 8 -1 8 14 0 26 -14 35 -14 26 0 -5 8 -1 8 14 0 27 -14 35 -14 26 2 -6 9 -4
9 8 -1 13 -10 17 -10 22 3 3 10 11 13 18 9 17 -11 90 -15 83 -4 -4 7 24 7 33
0 8 -8 49 -4 61 4 11 8 13 8 7 -1 -8 -15 3 -17 24 -3 9 5 19 5 27 -2 10 -8 13
-7 13 3 0 9 3 10 8 4 9 -13 75 -18 68 -6 -7 11 13 9 32 -2 7 -5 12 -3 12 5 0
8 3 9 8 2 8 -11 67 -12 78 -1 4 4 13 2 21 -4 10 -9 13 -8 13 2 0 12 2 12 9 1
11 -17 21 -17 32 0 5 7 9 8 9 2 0 -12 65 -12 76 -1 4 4 13 2 21 -4 10 -9 13
-8 13 2 0 12 2 12 9 1 11 -17 21 -17 32 0 5 7 9 8 9 2 0 -12 65 -12 76 -1 4 4
13 2 21 -4 10 -9 13 -8 13 2 0 12 2 12 9 1 11 -17 21 -17 32 0 5 7 9 8 9 2 0
-12 52 -11 85 1 17 6 18 5 5 -5 -13 -10 -12 -11 3 -6 10 3 25 6 33 6 9 0 12 5
8 12 -5 7 -3 8 7 3 20 -13 69 -13 69 -1 0 8 3 8 8 1 4 -6 16 -11 27 -11 11 0
23 5 27 11 5 7 8 6 8 -1 0 -16 33 -13 54 5 11 9 16 11 13 5 -4 -7 3 -12 18
-12 15 0 22 5 18 12 -3 6 0 6 8 -2 7 -6 17 -12 22 -12 4 0 5 6 1 12 -6 10 -4
10 8 0 10 -8 19 -9 22 -4 3 6 22 8 41 6 26 -2 34 0 28 9 -4 8 -2 8 9 -1 10 -8
19 -9 22 -3 3 5 14 8 24 7 9 -2 20 2 24 8 5 8 8 7 8 -2 0 -7 5 -10 10 -7 6 4
7 12 3 18 -5 9 -3 9 8 0 12 -10 18 -10 29 0 10 10 11 9 5 -2 -5 -8 -4 -12 1
-8 5 3 29 8 53 12 24 3 53 10 65 14 11 5 29 7 39 6 9 -2 17 0 17 5 0 4 8 6 19
3 10 -2 25 3 35 12 12 12 16 13 16 3 0 -10 3 -9 10 2 9 13 10 13 11 0 0 -10 3
-8 9 5 5 11 9 15 9 9 1 -12 31 -15 31 -3 0 5 6 6 14 3 8 -3 17 0 21 5 3 6 11
9 16 6 5 -4 9 2 9 12 0 15 2 16 10 3 8 -12 13 -11 33 9 15 13 27 18 31 12 8
-12 36 -3 54 18 8 9 11 10 7 4 -3 -7 -1 -13 4 -13 6 0 11 5 11 10 0 6 8 10 18
10 10 0 22 3 26 7 4 5 13 8 19 8 7 1 11 7 9 14 -1 7 2 10 8 6 13 -8 47 10 90
49 22 19 27 22 15 7 l-20 -24 23 14 c12 8 22 21 22 29 0 13 1 13 10 0 8 -13
10 -13 10 1 0 10 7 16 18 15 9 0 16 5 14 12 -2 11 2 14 31 16 6 1 22 12 35 25
12 13 22 21 22 17 0 -4 6 -1 14 6 8 7 12 16 9 21 -2 4 0 7 6 7 19 0 72 53 67
67 -3 8 -1 11 4 8 14 -9 82 63 74 77 -5 7 -2 8 6 3 10 -6 12 -4 7 8 -4 11 -2
14 9 10 7 -3 14 0 14 7 0 7 8 19 17 26 17 13 17 14 -2 9 -16 -5 -15 -3 3 6 13
7 21 18 18 25 -3 9 1 11 11 7 12 -5 15 -2 10 10 -4 11 3 23 19 36 14 11 23 25
19 31 -3 5 -1 10 5 10 7 0 9 7 6 16 -3 8 -2 13 3 10 11 -7 35 50 26 63 -3 6 0
9 7 6 8 -3 19 10 30 35 11 26 12 38 5 34 -7 -3 -4 1 5 9 14 11 15 16 5 27 -9
10 -9 11 1 6 11 -6 14 0 11 20 0 4 4 10 11 14 6 4 12 18 14 31 1 14 5 30 9 36
4 6 1 14 -5 16 -8 3 -5 6 6 6 16 1 17 3 5 18 -8 9 -9 14 -3 10 7 -4 14 0 18 8
3 8 0 15 -7 15 -7 0 -4 5 6 11 9 5 17 15 17 20 0 6 -6 7 -12 3 -7 -4 -4 3 7
16 12 14 14 20 5 15 -12 -7 -13 -6 -3 6 10 12 10 18 0 28 -9 10 -8 11 8 5 18
-7 19 -6 5 11 -8 10 -10 16 -4 12 7 -4 14 2 17 13 3 11 2 18 -2 15 -4 -2 -8 2
-8 10 0 8 4 12 9 9 12 -8 10 10 -4 24 -9 9 -7 13 6 18 12 5 14 10 6 19 -8 9
-8 15 0 20 6 3 8 11 5 16 -4 5 -2 9 4 9 5 0 8 8 7 18 -2 9 1 29 5 45 6 20 5
25 -4 20 -9 -5 -8 -2 0 9 7 8 10 18 6 21 -3 4 0 14 8 24 12 15 12 16 -1 8 -13
-8 -13 -7 -1 8 11 14 11 17 0 17 -9 0 -10 3 -4 8 13 9 17 26 20 99 2 45 -1 61
-9 56 -6 -3 -2 4 9 17 11 13 14 20 7 16 -11 -7 -11 -4 0 13 11 18 11 23 -2 31
-8 5 -10 10 -4 10 13 0 13 48 0 69 -6 9 -5 12 2 7 6 -4 10 1 10 11 -1 10 2 38
6 62 6 34 5 42 -4 36 -9 -6 -11 -4 -4 6 14 23 17 102 3 93 -8 -5 -9 -3 -4 7
12 19 17 71 6 65 -5 -3 -3 13 4 37 13 46 14 75 0 96 -5 10 -4 12 3 7 7 -4 12
-2 12 3 0 6 -6 11 -12 11 -10 0 -10 2 0 9 8 4 14 12 14 16 0 4 -6 12 -14 16
-7 5 -8 9 -3 9 6 0 11 16 11 35 1 31 -1 34 -14 23 -14 -12 -14 -10 0 12 16 26
18 76 3 99 -5 10 -4 12 3 7 7 -4 12 -2 12 3 0 6 -6 11 -12 11 -10 0 -10 2 0 9
8 4 14 12 14 16 0 4 -6 12 -14 16 -7 5 -8 9 -3 9 6 0 11 11 11 25 1 14 -2 23
-7 20 -4 -3 -5 5 -2 17 10 41 9 93 -2 107 -7 11 -7 13 3 7 6 -4 12 -2 12 3 0
6 -6 11 -12 11 -10 0 -10 2 0 9 17 11 17 21 0 32 -7 5 -8 9 -3 9 6 0 11 16 11
35 1 31 -1 34 -14 23 -14 -12 -14 -10 0 12 15 25 18 75 5 96 -3 6 -3 14 0 18
4 4 8 16 10 28 3 18 1 19 -14 7 -15 -13 -15 -12 -1 11 16 26 18 76 3 99 -5 10
-4 12 3 7 7 -4 12 -2 12 3 0 6 -6 11 -12 11 -10 0 -10 2 0 9 8 4 14 12 14 16
0 4 -6 12 -14 16 -7 5 -8 9 -3 9 6 0 11 11 11 25 1 14 -2 23 -7 20 -4 -3 -5 5
-2 17 10 41 9 93 -2 107 -7 11 -7 13 3 7 6 -4 12 -2 12 3 0 6 -6 11 -12 11
-10 0 -10 2 0 9 8 4 14 12 14 16 0 4 -6 12 -14 16 -7 5 -8 9 -3 9 6 0 11 16
11 35 1 31 -1 34 -14 23 -14 -12 -14 -10 0 12 16 26 18 76 3 99 -5 10 -4 12 3
7 7 -4 12 -2 12 3 0 6 -6 11 -12 11 -10 0 -10 2 0 9 8 4 14 12 14 16 0 4 -6
12 -14 16 -7 5 -8 9 -3 9 6 0 11 11 11 25 1 14 -2 23 -7 20 -4 -3 -5 5 -2 17
10 41 9 93 -2 107 -7 11 -7 13 3 7 6 -4 12 -2 12 3 0 6 -6 11 -12 11 -10 0
-10 2 0 9 8 4 14 12 14 16 0 4 -6 12 -14 16 -7 5 -8 9 -3 9 6 0 11 16 11 35 1
31 -1 34 -14 23 -14 -12 -14 -10 0 12 16 26 18 76 3 99 -5 10 -4 12 3 7 7 -4
12 -2 12 3 0 6 -6 11 -12 11 -10 0 -10 2 0 9 8 4 14 12 14 16 0 4 -6 12 -14
16 -7 5 -8 9 -3 9 6 0 11 11 11 25 1 14 -2 23 -7 20 -4 -3 -5 5 -2 17 10 41 9
93 -2 107 -7 11 -7 13 3 7 6 -4 12 -2 12 3 0 6 -6 11 -12 11 -10 0 -10 2 0 9
8 4 14 12 14 16 0 4 -6 12 -14 16 -7 5 -8 9 -3 9 6 0 11 16 11 35 1 31 -1 34
-14 23 -14 -12 -14 -10 0 12 16 26 18 76 3 99 -5 10 -4 12 3 7 7 -4 12 -2 12
3 0 6 -6 11 -12 11 -10 0 -10 2 0 9 17 11 17 21 0 32 -7 5 -8 9 -3 9 6 0 11
11 11 25 1 14 -2 23 -7 20 -4 -3 -5 5 -2 17 10 41 9 93 -2 107 -7 11 -7 13 3
7 6 -4 12 -2 12 3 0 6 -6 11 -12 11 -10 0 -10 2 0 9 8 4 14 12 14 16 0 4 -6
12 -14 16 -7 5 -8 9 -3 9 6 0 11 16 11 35 1 31 -1 34 -14 23 -14 -12 -14 -10
0 12 16 26 18 76 3 99 -5 10 -4 12 3 7 7 -4 12 -2 12 3 0 6 -6 11 -12 11 -10
0 -10 2 0 9 8 4 14 12 14 16 0 4 -6 12 -14 16 -7 5 -8 9 -3 9 6 0 11 11 11 25
1 14 -2 23 -7 20 -4 -3 -5 5 -2 17 10 41 9 93 -2 107 -7 11 -7 13 3 7 6 -4 12
-2 12 3 0 6 -6 11 -12 11 -10 0 -10 2 0 9 8 4 14 12 14 16 0 4 -6 12 -14 16
-7 5 -8 9 -3 9 6 0 11 16 11 35 1 31 -1 34 -14 23 -14 -12 -14 -10 0 12 16 25
18 76 5 97 -4 6 -3 15 3 18 7 4 7 11 2 18 -12 15 -12 48 0 41 13 -8 10 10 -4
25 -10 11 -10 13 0 7 7 -5 12 -1 12 9 0 10 -5 13 -12 9 -9 -5 -9 -2 1 9 7 9 9
17 4 17 -6 0 -9 20 -7 48 3 33 1 43 -6 32 -6 -9 -10 -10 -10 -3 0 6 4 15 10
18 6 3 10 11 10 17 0 7 -5 6 -15 -2 -13 -10 -13 -8 0 18 16 31 16 57 1 81 -6
10 -5 12 2 7 7 -4 12 -1 12 9 0 9 -5 13 -11 9 -8 -5 -9 -2 -2 11 12 20 5 58
-8 49 -5 -3 -9 0 -9 5 0 6 5 11 10 11 6 0 10 9 10 20 0 11 -6 20 -12 20 -8 0
-9 3 -3 8 11 8 17 64 6 57 -4 -2 -6 29 -6 68 1 40 -1 77 -4 82 -3 6 -6 17 -6
25 0 8 -4 21 -9 29 -7 11 -6 12 5 5 10 -6 9 0 -3 18 -10 15 -14 30 -9 33 6 3
7 15 5 28 -3 12 -6 28 -6 35 -1 6 -6 12 -12 12 -6 0 -4 5 4 10 8 5 10 10 3 10
-6 0 -10 8 -9 18 2 9 -2 20 -8 24 -8 5 -7 8 2 8 6 0 12 5 12 11 0 5 -5 7 -12
3 -8 -5 -9 -2 -5 9 4 10 1 17 -6 17 -8 0 -7 4 3 10 13 9 13 11 0 20 -11 7 -11
10 -2 10 7 0 10 5 7 10 -4 6 -10 8 -14 5 -5 -2 -6 7 -3 22 4 20 2 24 -9 18
-12 -8 -12 -6 0 8 11 14 11 18 -3 23 -9 3 -16 10 -16 16 0 5 4 7 9 4 5 -4 7 3
4 14 -3 11 -9 18 -13 15 -5 -3 -12 0 -16 6 -4 8 -3 9 4 5 8 -5 12 1 12 14 0
12 -4 19 -9 16 -5 -4 -7 3 -4 14 3 11 1 20 -4 20 -5 0 -9 16 -10 36 0 20 -7
40 -14 45 -8 5 -10 9 -5 9 6 0 2 6 -9 13 -13 10 -15 16 -6 22 9 5 7 11 -8 22
-12 8 -21 19 -21 25 0 7 7 3 15 -8 14 -18 14 -17 4 9 -7 15 -16 27 -20 27 -5
0 -5 8 -2 17 5 12 2 15 -8 11 -11 -4 -15 1 -15 21 1 15 -4 25 -11 24 -8 -2
-10 4 -6 14 4 10 2 14 -5 9 -7 -4 -10 1 -7 13 2 11 -6 30 -18 43 -22 24 -27
32 -27 46 0 4 -5 0 -11 -8 -9 -12 -10 -12 -5 4 4 13 -2 26 -21 42 -16 13 -24
24 -19 24 6 0 3 6 -6 13 -9 6 -18 21 -20 32 -2 11 -14 25 -26 31 -13 6 -24 15
-25 20 -1 5 -5 8 -10 6 -4 -1 -7 2 -7 8 0 19 -84 101 -98 95 -10 -4 -12 0 -8
11 5 12 2 15 -13 11 -12 -3 -18 1 -17 12 1 9 -6 15 -16 15 -10 -1 -16 1 -13 5
6 11 -30 38 -48 35 -9 -1 -15 1 -14 4 1 4 -1 7 -5 7 -4 0 -14 9 -23 20 -9 11
-14 13 -10 5 4 -8 -2 -5 -14 8 -12 13 -22 18 -26 12 -3 -6 -11 -8 -16 -4 -5 3
-7 9 -4 14 8 12 -73 53 -87 44 -7 -4 -8 -3 -4 4 11 18 -72 36 -92 20 -15 -11
-16 -11 -4 4 10 12 10 18 1 23 -6 4 -15 1 -20 -6 -6 -10 -9 -10 -9 -2 0 7 -10
17 -21 24 -16 8 -20 8 -14 0 3 -6 -8 -3 -27 7 -50 28 -70 34 -62 19 6 -9 5 -9
-8 0 -8 7 -18 10 -21 6 -4 -3 -7 -1 -7 5 0 6 -7 9 -17 5 -11 -4 -14 -3 -9 5 4
7 2 12 -3 12 -6 0 -11 -5 -11 -12 0 -6 -7 -3 -15 8 -11 14 -14 15 -15 4 0 -13
-1 -13 -10 0 -8 12 -12 13 -19 2 -6 -11 -10 -10 -15 3 -4 12 -13 15 -30 11
-12 -3 -26 -2 -30 2 -4 4 -12 8 -17 8 -5 1 -10 2 -11 3 -11 9 -48 9 -43 1 3
-6 -1 -7 -9 -4 -9 3 -16 10 -16 15 0 5 -5 9 -11 9 -5 0 -7 -5 -3 -12 5 -7 3
-8 -7 -2 -8 5 -17 9 -21 10 -5 1 -9 2 -10 4 -9 6 -78 4 -78 -3 0 -4 -7 -1 -16
7 -19 19 -59 22 -48 4 6 -10 5 -10 -7 -1 -16 13 -36 12 -58 -1 -9 -6 -12 -5
-7 2 3 6 2 13 -4 17 -5 3 -10 1 -10 -4 0 -6 -5 -11 -11 -11 -5 0 -7 5 -4 10 7
12 -23 9 -44 -4 -10 -7 -12 -6 -6 4 6 10 4 12 -8 7 -9 -3 -19 -2 -22 3 -4 6
-12 10 -18 10 -7 0 -6 -4 3 -10 8 -5 10 -10 5 -10 -6 0 -16 5 -23 12 -9 9 -12
9 -12 -3 0 -12 -2 -12 -10 1 -8 12 -11 13 -19 1 -7 -11 -9 -11 -14 0 -5 12 -7
12 -15 0 -8 -11 -10 -11 -15 0 -4 12 -7 11 -16 -1 -6 -8 -11 -10 -11 -4 0 6
-11 12 -25 12 -15 0 -22 -5 -19 -12 3 -6 0 -4 -8 4 -15 18 -72 25 -62 8 5 -7
2 -8 -7 -2 -19 11 -60 12 -83 1 -13 -6 -16 -6 -12 2 10 15 -17 14 -33 -1 -9
-8 -11 -9 -7 -1 4 8 -6 11 -34 10 -22 -1 -40 -6 -40 -12 0 -6 -3 -6 -8 0 -4 6
-16 11 -27 11 -11 0 -23 -5 -27 -11 -5 -7 -8 -6 -8 1 0 14 -68 13 -89 -1 -10
-6 -12 -4 -7 4 11 18 -26 10 -42 -9 -11 -13 -11 -13 -7 1 5 12 0 16 -17 15
-13 -1 -29 -6 -37 -10 -9 -6 -12 -5 -8 0 3 6 -20 10 -59 9 -35 0 -64 -4 -64
-10 0 -5 -4 -4 -8 3 -9 13 -38 12 -61 -2 -10 -6 -12 -5 -7 2 4 7 1 12 -9 12
-9 0 -14 -4 -11 -8 2 -4 -5 -9 -17 -9 -17 -2 -19 0 -7 7 11 7 8 9 -14 8 -15
-2 -31 -9 -34 -16 -4 -11 -6 -11 -13 -1 -10 16 -39 21 -39 6 0 -8 -3 -8 -8 -2
-4 6 -16 11 -27 11 -11 0 -23 -5 -27 -11 -5 -6 -8 -5 -8 3 0 7 -4 10 -10 7 -5
-3 -10 0 -10 7 0 9 -3 9 -10 -2 -5 -8 -10 -10 -10 -5 0 6 -16 11 -35 12 -20 1
-33 -2 -31 -6 7 -11 -27 -10 -41 1 -7 5 -14 5 -18 -2 -3 -6 -12 -7 -18 -3 -17
11 -41 10 -49 -2 -5 -6 -8 -6 -8 1 0 12 -58 12 -77 1 -6 -4 -15 -2 -19 4 -4 8
-9 7 -15 -2 -7 -12 -9 -12 -9 0 0 11 -3 11 -17 0 -11 -10 -14 -10 -9 -1 9 15
1 15 -26 1 -11 -6 -18 -7 -15 -2 3 4 -14 9 -39 9 -24 1 -41 -2 -39 -6 6 -10
-15 -8 -32 3 -6 4 -14 3 -18 -3 -3 -5 -12 -10 -18 -10 -7 0 -6 4 3 10 13 8 13
10 -2 10 -9 0 -20 -5 -23 -10 -5 -8 -11 -7 -21 1 -11 9 -14 8 -14 -2 0 -9 -3
-10 -8 -4 -9 13 -75 18 -68 6 5 -7 -22 -8 -31 -1 -9 8 -49 4 -55 -5 -5 -7 -8
-6 -8 1 0 12 -58 12 -77 1 -6 -4 -15 -2 -19 4 -4 8 -9 7 -15 -2 -5 -8 -9 -9
-9 -4 0 6 -16 11 -35 12 -20 1 -33 -2 -30 -7 6 -10 -14 -8 -32 3 -6 4 -14 3
-18 -3 -3 -5 -12 -10 -18 -10 -7 0 -6 4 3 10 13 9 13 10 0 10 -9 0 -21 -5 -28
-12 -8 -8 -15 -8 -26 1 -10 8 -16 9 -21 1 -3 -6 -12 -7 -18 -3 -17 11 -41 10
-49 -2 -5 -6 -8 -6 -8 1 0 12 -58 12 -77 1 -6 -4 -15 -2 -19 4 -4 8 -9 7 -15
-2 -7 -12 -9 -12 -9 0 0 11 -3 11 -17 0 -11 -10 -14 -10 -9 -1 9 15 1 15 -26
1 -11 -6 -18 -7 -15 -2 3 4 -14 9 -39 9 -24 1 -41 -2 -39 -6 6 -10 -15 -8 -32
3 -6 4 -14 3 -18 -3 -3 -5 -12 -10 -18 -10 -7 0 -6 4 3 10 13 8 13 10 -2 10
-9 0 -20 -5 -23 -10 -5 -8 -11 -7 -21 1 -11 9 -14 8 -14 -2 0 -9 -3 -10 -8 -4
-9 13 -75 18 -68 6 5 -7 -22 -8 -31 -1 -9 8 -49 4 -55 -5 -5 -7 -8 -6 -8 1 0
12 -58 12 -77 1 -6 -4 -15 -2 -19 4 -4 8 -9 7 -15 -2 -5 -8 -9 -9 -9 -4 0 6
-16 11 -35 12 -20 1 -33 -2 -30 -7 6 -10 -14 -8 -32 3 -6 4 -14 3 -18 -3 -3
-5 -12 -10 -18 -10 -7 0 -6 4 3 10 13 9 13 10 -1 10 -8 0 -20 -5 -27 -12 -8
-8 -15 -8 -26 1 -10 8 -16 9 -21 1 -3 -6 -12 -7 -18 -3 -17 11 -41 10 -49 -2
-5 -6 -8 -6 -8 1 0 12 -58 12 -77 1 -6 -4 -15 -2 -19 4 -4 8 -9 7 -15 -2 -7
-12 -9 -12 -9 0 0 11 -3 11 -17 0 -11 -10 -14 -10 -9 -1 9 15 1 15 -26 1 -11
-6 -18 -7 -15 -2 3 4 -14 9 -39 9 -24 1 -41 -2 -39 -6 6 -10 -15 -8 -32 3 -6
4 -14 3 -18 -3 -3 -5 -12 -10 -18 -10 -7 0 -6 4 3 10 13 8 13 10 -2 10 -9 0
-20 -5 -23 -10 -5 -8 -11 -7 -21 1 -11 9 -14 8 -14 -2 0 -9 -3 -10 -8 -4 -9
13 -75 18 -68 6 5 -7 -22 -8 -31 -1 -9 8 -49 4 -55 -5 -5 -7 -8 -6 -8 1 0 12
-58 12 -77 1 -6 -4 -15 -2 -19 4 -4 8 -9 7 -15 -2 -5 -8 -9 -9 -9 -4 0 6 -16
11 -35 12 -20 1 -33 -2 -30 -7 6 -10 -14 -8 -32 3 -6 4 -14 3 -18 -3 -3 -5
-12 -10 -18 -10 -7 0 -6 4 3 10 13 9 13 10 -1 10 -8 0 -20 -5 -27 -12 -8 -8
-15 -8 -26 1 -10 8 -16 9 -21 1 -3 -6 -12 -7 -18 -3 -17 11 -41 10 -49 -2 -5
-6 -8 -6 -8 1 0 12 -58 12 -77 1 -6 -4 -15 -2 -19 4 -4 8 -9 7 -15 -2 -7 -12
-9 -12 -9 0 0 11 -3 11 -17 0 -11 -10 -14 -10 -9 -1 9 15 1 15 -26 1 -11 -6
-18 -7 -15 -2 3 4 -14 9 -39 9 -24 1 -41 -2 -39 -6 6 -10 -15 -8 -32 3 -6 4
-14 3 -18 -3 -3 -5 -12 -10 -18 -10 -7 0 -6 4 3 10 13 8 13 10 -2 10 -9 0 -20
-5 -23 -10 -5 -8 -11 -7 -21 1 -11 9 -14 8 -14 -2 0 -9 -3 -10 -8 -4 -9 13
-75 18 -68 6 5 -7 -22 -8 -31 -1 -9 8 -49 4 -55 -5 -5 -7 -8 -6 -8 1 0 12 -58
12 -77 1 -6 -4 -15 -2 -19 4 -4 8 -9 7 -15 -2 -5 -8 -9 -9 -9 -4 0 6 -16 11
-35 12 -20 1 -33 -2 -30 -7 6 -10 -14 -8 -32 3 -6 4 -14 3 -18 -3 -3 -5 -12
-10 -18 -10 -7 0 -6 4 3 10 13 9 13 10 0 10 -9 0 -21 -5 -28 -12 -8 -8 -15 -8
-26 1 -10 8 -16 9 -21 1 -3 -6 -12 -7 -18 -3 -17 11 -41 10 -49 -2 -5 -6 -8
-6 -8 1 0 12 -58 12 -77 1 -6 -4 -15 -2 -19 4 -4 8 -9 7 -15 -2 -7 -12 -9 -12
-9 0 0 11 -3 11 -17 0 -11 -10 -14 -10 -9 -1 9 15 1 15 -26 1 -11 -6 -18 -7
-15 -2 3 4 -14 9 -39 9 -24 1 -41 -2 -39 -6 6 -10 -15 -8 -32 3 -6 4 -14 3
-18 -3 -3 -5 -12 -10 -18 -10 -7 0 -6 4 3 10 13 8 13 10 -2 10 -9 0 -20 -5
-23 -10 -5 -8 -11 -7 -21 1 -11 9 -14 8 -14 -2 0 -9 -3 -10 -8 -4 -9 13 -75
18 -68 6 5 -7 -22 -8 -31 -1 -9 8 -49 4 -55 -5 -5 -7 -8 -6 -8 1 0 12 -58 12
-77 1 -6 -4 -15 -2 -19 4 -4 8 -9 7 -15 -2 -5 -8 -9 -9 -9 -4 0 6 -16 11 -35
12 -20 1 -33 -2 -30 -7 6 -10 -14 -8 -32 3 -6 4 -14 3 -18 -3 -3 -5 -12 -10
-18 -10 -7 0 -6 4 3 10 13 9 13 10 0 10 -9 0 -21 -5 -28 -12 -8 -8 -15 -8 -25
0 -10 9 -19 7 -37 -5z m7057 -209 c-3 -3 -12 -4 -19 -1 -8 3 -5 6 6 6 11 1 17
-2 13 -5z m-6261 -883 c55 -6 135 -13 179 -17 151 -12 363 -68 475 -125 190
-97 321 -255 400 -481 32 -91 65 -259 75 -383 4 -44 9 -91 13 -105 3 -14 8
-1957 9 -4318 l4 -4293 -1333 4 c-733 2 -1353 7 -1378 11 -25 4 -103 14 -173
22 -402 44 -664 197 -791 458 -77 159 -128 373 -143 610 -11 149 -10 7436 0
7551 61 693 316 973 957 1050 74 9 231 19 350 22 118 3 216 7 218 8 8 7 1056
-6 1138 -14z m4799 5 c88 -3 174 -7 190 -10 17 -3 77 -10 135 -16 117 -13 284
-51 370 -85 142 -56 285 -165 360 -274 84 -125 145 -290 175 -476 8 -55 18
-113 20 -130 3 -16 9 -95 13 -175 9 -187 9 -3214 0 -3425 -19 -419 -101 -696
-258 -869 -166 -181 -431 -285 -795 -311 -49 -4 -108 -9 -130 -11 -68 -7
-1335 -7 -1435 0 -301 21 -392 36 -550 88 -191 62 -308 138 -412 268 -78 98
-155 278 -188 443 -44 219 -43 202 -47 2012 -3 1864 -1 1932 51 2182 89 428
305 647 730 738 61 13 147 27 191 30 44 4 89 10 100 12 11 3 189 7 395 10 206
2 386 5 400 6 36 3 495 -2 685 -7z m-8475 -306 c0 -5 -2 -10 -4 -10 -3 0 -8 5
-11 10 -3 6 -1 10 4 10 6 0 11 -4 11 -10z m9457 -6486 c-3 -3 -12 -4 -19 -1
-8 3 -5 6 6 6 11 1 17 -2 13 -5z"/>
<path d="M3355 10108 c-186 -6 -244 -14 -349 -47 -183 -57 -296 -185 -348
-397 l-22 -89 -4 -3380 c-2 -2369 0 -3408 8 -3475 22 -196 74 -324 167 -411
94 -89 194 -129 375 -153 118 -16 790 -20 923 -5 197 21 322 69 412 160 107
106 159 243 172 457 12 179 12 6646 0 6752 -22 199 -70 320 -164 416 -137 140
-288 174 -780 178 -115 0 -291 -2 -390 -6z"/>
<path d="M8447 10114 c-2 -2 -63 -4 -137 -5 -225 -3 -373 -29 -477 -86 -81
-44 -166 -135 -206 -222 -75 -161 -71 -59 -74 -1661 -2 -1591 -4 -1556 59
-1720 22 -56 93 -170 106 -170 4 0 23 -15 43 -34 78 -75 230 -119 449 -132 74
-5 277 -8 450 -7 500 3 623 30 780 171 74 66 121 162 151 307 l23 110 2 1385
c1 762 -2 1423 -7 1470 -20 196 -76 336 -170 425 -93 88 -211 135 -394 155
-87 9 -591 21 -598 14z"/>
</g>
</svg>
